<svg xmlns="http://www.w3.org/2000/svg" width="190.144" height="28.532" viewBox="28 31 190.144 28.532"><g data-name="Group 11770"><path d="M45.92 37.672a2.346 2.346 0 0 0-2.35 2.342v14.668a2.346 2.346 0 0 0 2.35 2.342 2.347 2.347 0 0 0 2.35-2.342V40.014a2.347 2.347 0 0 0-2.35-2.342Zm49.469-.012c-5.333 0-9.656 4.323-9.656 9.655 0 5.333 4.323 9.656 9.656 9.656a9.655 9.655 0 0 0 9.655-9.656 9.655 9.655 0 0 0-9.655-9.655Zm0 14.738c-2.817 0-5.1-2.276-5.1-5.083 0-2.807 2.283-5.082 5.1-5.082 2.816 0 5.1 2.275 5.1 5.082s-2.284 5.083-5.1 5.083ZM85.253 37.931a2.3 2.3 0 0 0-3.084 1.05l-5.171 10.556-5.24-10.584a2.3 2.3 0 0 0-3.084-1.039l-.067.034a2.3 2.3 0 0 0-1.037 3.08l7.284 14.706a2.3 2.3 0 0 0 2.06 1.278h.101a2.3 2.3 0 0 0 2.066-1.286l7.218-14.722a2.299 2.299 0 0 0-1.046-3.073Zm-39.64-1.194a2.364 2.364 0 0 0 2.649-2.649 2.363 2.363 0 1 0-2.65 2.649Zm13.33 1.37c-1.67 0-3.234.445-4.583 1.221a2.35 2.35 0 0 0-2.247-1.656 2.345 2.345 0 0 0-2.35 2.34v14.673a2.345 2.345 0 0 0 2.35 2.34 2.346 2.346 0 0 0 2.35-2.34v-7.53c0-2.465 2.006-4.463 4.48-4.463 2.474 0 4.48 1.998 4.48 4.462v7.53a2.345 2.345 0 0 0 2.35 2.342 2.346 2.346 0 0 0 2.35-2.341V47.25c0-5.05-4.11-9.143-9.18-9.143Zm-22.996 9.23 5.46-5.461c1.064-1.064 1.181-2.67.264-3.588-.918-.918-2.525-.8-3.588.264L32.7 43.934v-9.583a2.35 2.35 0 1 0-4.701 0v20.343a2.35 2.35 0 1 0 4.7 0v-3.956l5.451 5.393c1.07 1.07 2.68 1.191 3.598.274.918-.919.795-2.53-.274-3.598l-5.528-5.47Z" fill="#5d41ac" fill-rule="evenodd" data-name="Path 3737"/><path d="M176.522 31c-.898 0-1.408.456-1.408 1.276 0 .973.51 1.277 1.408 1.277.9 0 1.409-.395 1.409-1.277 0-.82-.51-1.276-1.409-1.276Zm15.433 18.444c0 2.826-1.649 4.315-4.765 4.315-3.116 0-4.734-1.52-4.734-4.315V37.23h-1.798v12.275c0 3.737 2.127 6.016 6.532 6.016 4.435 0 6.563-2.25 6.563-6.016V37.23h-1.798v12.214Zm-16.362 5.713h1.828V37.169l-1.828.152v17.836ZM114.61 36.926c-2.307 0-4.284.88-5.483 2.339h-.09l-.39-2.066-1.348.122v22.211h1.887v-3.829l-.03-2.46.06-.031c1.26 1.671 3.147 2.31 5.185 2.31 4.315 0 6.981-2.553 6.981-9.36 0-7.019-2.457-9.236-6.772-9.236Zm-.569 16.954c-2.457 0-4.076-1.245-4.855-2.613V41.18c1.08-1.641 2.818-2.492 5.035-2.492 3.356 0 5.274 1.61 5.274 7.475 0 6.138-2.278 7.717-5.454 7.717Zm98.44-16.924c-2.307 0-4.164 1.033-4.974 3.008h-.09c-.719-1.975-2.337-2.977-4.883-2.977-1.918 0-3.686.91-4.675 2.338h-.09l-.36-2.186-1.288.12v17.898h1.798V41.119c.839-1.459 2.637-2.4 4.315-2.4 2.187 0 4.015 1.063 4.015 3.858v12.58h1.798v-12.58c0-2.552 1.917-3.858 4.015-3.858 2.636 0 4.285 1.336 4.285 4.253v12.185h1.797V42.942c0-4.102-2.306-5.986-5.663-5.986Zm-86.693 4.71h-.06l-.06-2.462-.06-2.005-1.467.122v17.836h1.797V46.01c0-4.344 2.517-7.14 5.513-7.14.57 0 1.11.061 1.619.243l.15-1.914c-.51-.152-1.08-.212-1.678-.212-2.667 0-4.735 1.883-5.754 4.679Zm40.934-4.71c-2.307 0-4.165 1.033-4.975 3.008h-.089c-.72-1.975-2.337-2.977-4.884-2.977-1.917 0-3.686.91-4.674 2.338h-.09l-.36-2.186-1.288.12v17.898h1.797V41.119c.84-1.459 2.637-2.4 4.315-2.4 2.188 0 4.015 1.063 4.015 3.858v12.58h1.798v-12.58c0-2.552 1.918-3.858 4.016-3.858 2.636 0 4.284 1.336 4.284 4.253v12.185h1.798V42.942c0-4.102-2.307-5.986-5.663-5.986Zm-25.83-.03c-4.675 0-7.042 3.038-7.042 8.66 0 6.927 2.247 9.935 7.88 9.935 2.068 0 3.775-.516 5.304-1.398l-.24-1.61c-1.498.82-3.026 1.276-4.884 1.276-4.225 0-6.113-1.945-6.202-7.688h11.895c.03-.243.06-.637.06-.91 0-5.804-2.787-8.265-6.772-8.265Zm-5.214 7.87c.18-4.133 1.738-6.23 5.213-6.23 2.937 0 5.034 1.702 5.094 6.23h-10.307Z" fill="#627179" fill-rule="evenodd" data-name="Path 3738"/></g></svg>