<svg
   width="181.34799"
   height="183.25333"
   viewBox="0 0 181.34799 183.25333"
   xmlns:inkscape="http://www.inkscape.org/namespaces/inkscape"
   xmlns:sodipodi="http://sodipodi.sourceforge.net/DTD/sodipodi-0.dtd"
   xmlns="http://www.w3.org/2000/svg">

   <g
     id="g8"
     transform="matrix(1.3333333,0,0,-1.3333333,0,183.25333)">
     <g
     id="g10"
     transform="scale(0.1)">

       <path
         d="M 0,694.301 C 0,1069.83 304.453,1374.4 680.012,1374.4 1055.57,1374.4 1360.11,1069.83 1360.11,694.301 1360.11,318.719 1055.57,14.2617 680.012,14.2617 304.453,14.2617 0,318.719 0,694.301"
         style="fill:#006838;fill-opacity:1;fill-rule:nonzero;stroke:none"
         id="path12" />

       <path
         d="m 20.0391,694.301 c 0,364.449 295.5199,659.939 659.9729,659.939 364.508,0 659.968,-295.49 659.968,-659.939 0,-364.449 -295.46,-660.0315 -659.968,-660.0315 -364.453,0 -659.9729,295.5825 -659.9729,660.0315"
         style="fill:#ffffff;fill-opacity:1;fill-rule:nonzero;stroke:none"
         id="path14" />
         
       <path
         d="m 41.5156,694.301 c 0,352.679 285.8794,638.499 638.4964,638.499 352.698,0 638.548,-285.82 638.548,-638.499 0,-352.61 -285.85,-638.4924 -638.548,-638.4924 -352.617,0 -638.4964,285.8824 -638.4964,638.4924"
         style="fill:#006838;fill-opacity:1;fill-rule:nonzero;stroke:none"
         id="path16" />
         
       <path
         d="m 285.383,696.969 c 0,217.234 176.012,393.221 393.277,393.221 217.031,0 393.08,-175.987 393.08,-393.221 0,-217.121 -176.049,-393.137 -393.08,-393.137 -217.265,0 -393.277,176.016 -393.277,393.137"
         style="fill:#ffffff;fill-opacity:1;fill-rule:nonzero;stroke:none"
         id="path18" />
         
       <path
         d="m 498.164,1221.88 c -9.172,-3.9 -19.187,-8.03 -27.101,-11.31 4.601,-10.25 8.378,-18.52 14.242,-31.46 l 27.097,11.42 c 5.828,4.04 6.184,13.54 3.489,20.42 -3.813,8.12 -12.012,12.75 -17.727,10.93 M 471.27,1079.73 c -19.161,46.76 -42.684,101.52 -60.032,145.32 21.797,9.19 50.742,21.5 75,31.87 22.383,9.55 52.004,9.2 71.782,-11.34 9.96,-11.04 13.945,-28.3 12.71,-39.05 -1.167,-9.61 -4.746,-18.28 -11.777,-27.31 15.82,-14.65 36.77,-34.18 54.699,-50.71 l -52.297,-11.42 c -17.664,14.26 -27.3,21.88 -42.949,34.77 -6.148,-2.61 -11.25,-4.75 -17.578,-7.38 l 18.985,-42.02 -48.543,-22.73"
         style="fill:#ffffff;fill-opacity:1;fill-rule:nonzero;stroke:none"
         id="path20" />
         
       <path
         d="m 1079.85,1133.96 c 9.38,-11.6 15.79,-26.01 19.87,-40.64 -11.55,-6.21 -20.45,-11.94 -31.5,-18.25 -2.78,17.14 -12.16,34.54 -28.97,43.1 -8.09,4.69 -19.98,5.56 -29.04,2.46 -14.058,-5.21 -26.272,-17.34 -31.487,-31.46 -4.746,-13.54 0.554,-26.78 8.203,-37.3 10.808,-12.22 25.224,-18.55 41.544,-19.13 -7.44,-12.01 -12.19,-19.75 -18.26,-28.94 -27.097,3.86 -52.581,18.75 -68.022,43.88 -13.211,21.33 -14.063,53.94 -2.43,76.29 12.097,24.61 36.094,40.37 62.112,43.95 29.29,3.16 59.41,-11.31 77.98,-33.96"
         style="fill:#ffffff;fill-opacity:1;fill-rule:nonzero;stroke:none"
         id="path22" />
         
       <path
         d="m 1162.65,1036.25 c -14.42,-10.75 -32.58,-24.31 -46.97,-34.98 22.24,-2.575 49.05,-5.211 72.22,-7.848 8.44,-15.703 15.47,-28.711 24.84,-46.055 l -83.02,6.035 c -16.47,-29.707 -32.49,-58.125 -48.17,-86.453 -9.67,14.149 -17.19,32.344 -26.6,48.074 10.64,21.036 22.94,45.586 33.58,65.918 -16.79,-12.39 -33.81,-25.019 -51.27,-38.054 l -30.36,40.574 c 41.08,30.589 125.16,93.199 125.16,93.199 l 30.59,-40.41"
         style="fill:#ffffff;fill-opacity:1;fill-rule:nonzero;stroke:none"
         id="path24" />
         
       <path
         d="m 161.223,895.16 c -17.114,-13.301 -29.36,-32.605 -25.785,-54.754 0.824,-3.312 3.285,-8.613 8.554,-9.289 13.481,-0.82 19.66,14.301 24.668,24.262 8.028,15.789 21.887,34.566 41.399,36.441 17.019,1.145 31.257,-3.277 42.363,-16.523 16.789,-20.211 13.738,-52.793 5.832,-76.289 -7.5,-17.403 -19.16,-35.098 -35.715,-46.524 l -29.883,18.313 c 16.321,11.336 33.43,29.883 35.684,50.594 0,7.382 -1.61,17.406 -10.813,18.222 -15.523,0.645 -20.918,-28.476 -33.867,-41.425 -10.015,-10.254 -22.437,-17.989 -38.199,-15.821 -14.68,0.821 -27.07,10.051 -35.625,21.621 -16.3204,24.785 -8.32,61.289 1.641,80.391 6.089,10.781 13.242,21.594 23.203,29.883 8.379,-6.004 17.515,-12.774 26.543,-19.102"
         style="fill:#ffffff;fill-opacity:1;fill-rule:nonzero;stroke:none"
         id="path26" />
         
       <path
         d="m 1243.97,873.629 c 14.42,-23.203 19.93,-53.938 12.49,-82.09 l -30.74,1.672 c 4.19,18.543 7.21,41.715 -5.8,57.215 -3.87,4.66 -10.72,7.469 -15.67,4.953 -16.7,-13.418 0.7,-43.305 -8.97,-67.707 -4.51,-11.75 -9.64,-19.66 -23.43,-25.168 -17.41,-6.621 -38.94,-3.281 -52.15,9.961 -26.02,27.129 -38.15,69.14 -21.68,104.504 h 32.4 c -5.45,-13.86 -9.43,-33.426 -4.19,-49.746 2.84,-6.887 6.18,-15.821 14.06,-18.254 26.02,-2.926 9.85,38.91 14.62,55.254 3.11,12.394 10.02,26.488 23.56,32.609 24.9,12.129 53.93,-1.672 65.5,-23.203"
         style="fill:#ffffff;fill-opacity:1;fill-rule:nonzero;stroke:none"
         id="path28" />
         
       <path
         d="m 388.328,371.219 c 4.223,-7.879 8.266,-14.828 11.137,-26.34 -9.262,-4.598 -20.918,-10.367 -31.027,-15.32 -2.43,18.16 -18.543,36.089 -36.536,40.781 -14.882,3.808 -31.172,-3.281 -42.183,-16.531 -9.145,-10.84 -11.836,-26.329 -9.145,-39.84 3.989,-15.699 26.836,-32.367 47.258,-32.899 l 5.828,-0.179 c -6.004,-12.211 -9.722,-19.77 -14.969,-29.911 -33.308,1.09 -67.121,20.739 -79.597,53.09 -10.754,26.192 -6.008,60.168 10.84,82.028 20.449,26.015 53.027,33.164 84.578,26.488 22.644,-5.332 41.164,-21.801 53.816,-41.367"
         style="fill:#ffffff;fill-opacity:1;fill-rule:nonzero;stroke:none"
         id="path30" />
         
       <path
         d="m 453.02,284.09 c -11.899,5.59 -25.344,1.172 -34.836,-6.57 -15.379,-15.231 -25.579,-35.911 -19.422,-58.059 2.578,-9.02 11.336,-15.941 20.093,-19.512 12.778,-4.687 25.137,-0.59 35.012,7.852 15.117,15.578 25.988,37.027 16.555,58.89 -2.231,7.258 -10.227,15.231 -17.402,17.399 m 52.261,2.601 c 16.875,-21.652 17.141,-55.101 6.621,-79.621 -11.773,-25.05 -34.273,-40.961 -58.882,-46.558 -29.829,-4.633 -58.04,5.039 -79.575,25.777 -19.043,21.039 -29.617,51.16 -19.859,80.402 8.523,31.778 39.488,54.989 71.277,58.879 32.903,1.91 63.282,-13.211 80.418,-38.879"
         style="fill:#ffffff;fill-opacity:1;fill-rule:nonzero;stroke:none"
         id="path32" />
         
       <path
         d="m 800.48,231.59 c -23.261,-3.281 -45.324,-5.981 -67.445,-9.61 0.82,-10.339 1.528,-18.929 2.168,-27.601 20.742,2.93 39.289,5.57 58.598,8.383 l 5.918,-36.621 c -19.223,-2.762 -41.899,-5.981 -61.645,-8.821 1.059,-15.968 2.578,-36.39 4.043,-54.05 -16.582,-1.411 -33.34,-2.348 -50.215,-3.4302 L 681.77,255.852 c 37.378,3.57 76.726,8.609 112.5,14.5 1.875,-11.75 3.777,-23.653 6.21,-38.762"
         style="fill:#ffffff;fill-opacity:1;fill-rule:nonzero;stroke:none"
         id="path34" />
         
       <path
         d="m 928.977,296.922 -59.914,-29.184 10.457,-24.609 c 18.371,8.562 34.043,15.59 52.648,24.262 4.043,-8.911 8.645,-19.282 13.27,-29.532 -17.168,-8.089 -35.211,-15.757 -53.028,-24.109 3.574,-8.238 5.981,-13.801 11.66,-26.898 l 65.102,30.089 14.148,-31.851 C 945.73,167.781 904.719,149.148 869.211,133.441 l -55.957,142.438 c 35.508,15.473 68.965,31.531 102.832,49.34 4.156,-8.668 12.891,-28.297 12.891,-28.297"
         style="fill:#ffffff;fill-opacity:1;fill-rule:nonzero;stroke:none"
         id="path36" />
         
       <path
         d="m 659.441,217.441 c -23.113,3.891 -45,8.079 -67.261,11.278 -2.524,-10.668 -4.692,-22.36 -6.684,-30.438 20.449,-3.691 37.031,-6.332 58.422,-10.019 l -5.332,-35.543 c -19.863,3.34 -40.844,6.531 -61.523,10.312 -3.989,-15.929 -7.852,-34.39 -12.192,-51.851 -15.879,3.808 -31.641,7.968 -48.808,12.242 l 37.675,153.168 c 36.742,-8 74.504,-14.891 110.332,-20.281 -1.465,-11.707 -3.047,-25.071 -4.629,-38.868"
         style="fill:#ffffff;fill-opacity:1;fill-rule:nonzero;stroke:none"
         id="path38" />
         
       <path
         d="m 1113.4,54.3984 c 7.88,0 20.21,-1.3476 20.21,10.2813 0,8.7891 -7.73,9.9297 -14.67,9.9297 h -16.12 v -20.211 z m 26.45,-31.8789 h -8.26 l -16.17,26.3711 h -12.6 V 22.5195 h -6.91 v 57.1016 h 24.61 c 4.74,0 9.55,-0.1992 13.8,-2.8125 4.19,-2.4297 6.32,-7.4102 6.32,-12.2969 0,-11.2226 -7.88,-15.3203 -17.93,-15.6211 z m 19.16,28.6289 c 0,24.7813 -19.92,44.8204 -44.35,44.8204 -24.64,0 -44.53,-20.0391 -44.53,-44.8204 0,-25.0468 19.89,-44.99996 44.53,-44.99996 24.43,0 44.35,19.95316 44.35,44.99996 m -95.04,0 c 0,28.1211 22.68,50.9726 50.69,50.9726 27.95,0 50.39,-22.8515 50.39,-50.9726 C 1165.05,22.8516 1142.61,0 1114.66,0 c -28.01,0 -50.69,22.8516 -50.69,51.1484"
         style="fill:#231f20;fill-opacity:1;fill-rule:nonzero;stroke:none"
         id="path40" />
         
       <path
         d="m 217.297,1065.9 33.047,-19.39 -24.614,-39.81 95.747,-62.79 -25.137,-41.277 -97.356,60.496 -23.23,-37.852 -31.992,21.301 73.535,119.322"
         style="fill:#ffffff;fill-opacity:1;fill-rule:nonzero;stroke:none"
         id="path42" />
         
       <path
         d="m 264.758,1117.29 59.058,49.89 143.149,-89.82 -41.223,-27.25 -31.496,16.56 -39.871,-34.87 13.801,-33.163 -36.098,-40.313 z m 52.262,-2.46 20.625,-47.58 23.441,20.68 z"
         style="fill:#ffffff;fill-opacity:1;fill-rule:nonzero;stroke:none"
         id="path44" />
         
       <path
         d="m 695.242,1196.8 c -6.094,0.06 -21.324,0 -28.008,0 0.469,-9.49 0.735,-22.23 1.235,-31.29 7.73,0 20.269,0.06 28.152,0.06 10.109,0.7 10.281,11.72 10.371,15.53 -0.437,4.89 -1.582,14.29 -11.75,15.7 m -2.664,58.45 c -6.183,0.03 -21.418,0 -28.098,0 0.5,-9.35 0.852,-20.3 1.348,-29.36 7.617,0 20.246,0 27.981,0 10.195,0.71 10.339,10.9 10.402,14.59 -0.41,4.93 -1.523,13.4 -11.633,14.77 m 50.274,21.06 c 10.808,-9.63 13.093,-25.45 11.164,-36.26 -2.2,-9.85 -8.618,-19.58 -17.407,-26.46 10.786,-8.09 21.211,-15.15 23.618,-30.67 2.839,-14.89 -1.582,-26.9 -9.551,-37.36 -16.821,-19.07 -42.453,-15.82 -66.684,-16.61 H 618.43 l -0.41,5.89 -6.743,149.38 c 34.399,0 44.067,0.06 75.703,0.06 42.422,0 48.223,-2.58 55.872,-7.97"
         style="fill:#ffffff;fill-opacity:1;fill-rule:nonzero;stroke:none"
         id="path46" />
         
       <path
         d="m 648.281,912.387 c 17.051,-1.524 39.817,-1.758 58.008,0.238 l -29.324,21.559 c 0,0 -20.07,-15.348 -28.684,-21.797"
         style="fill:#ffffff;fill-opacity:1;fill-rule:nonzero;stroke:none"
         id="path48" />
         
       <path
         d="m 648.281,912.387 c 17.051,-1.524 39.817,-1.758 58.008,0.238 l -29.324,21.559 c 0,0 -20.07,-15.348 -28.684,-21.797 z"
         style="fill:none;stroke:#ffffff;stroke-width:7.5;stroke-linecap:square;stroke-linejoin:miter;stroke-miterlimit:2;stroke-dasharray:none;stroke-opacity:1"
         id="path50" />
         
       <path
         d="m 1163.14,587.426 h -49.24 l 38.43,-30.938 -13.65,-47.109 42.83,26.398 43.01,-26.398 -13.89,47.168 38.21,30.879 h -48.96 l -18.37,45.586 -18.37,-45.586"
         style="fill:#ffffff;fill-opacity:1;fill-rule:nonzero;stroke:none"
         id="path52" />
         
       <path
         d="M 158.289,587.426 H 108.84 l 38.672,-30.938 -13.774,-47.109 42.832,26.398 43.008,-26.398 -13.824,47.168 38.23,30.879 H 194.91 l -18.34,45.586 -18.281,-45.586"
         style="fill:#ffffff;fill-opacity:1;fill-rule:nonzero;stroke:none"
         id="path54" />
         
       <path
         d="m 1035.79,386.012 -49.567,-44.621 16.877,-20.68 c 15.38,13.18 28.38,24.258 44,37.73 6.39,-7.441 13.56,-16.05 20.8,-24.722 -14.36,-12.43 -29.47,-24.879 -44.36,-37.739 5.69,-6.91 9.53,-11.718 18.7,-22.73 l 54.37,47.02 22.33,-26.809 c -31.38,-27.129 -65.63,-56.25 -95.54,-81.152 l -93.373,121.64 c 30,24.731 57.864,49.223 85.603,75.645 6.36,-7.09 20.16,-23.582 20.16,-23.582"
         style="fill:#ffffff;fill-opacity:1;fill-rule:nonzero;stroke:none"
         id="path56" />
         
       <path
         d="m 828.984,1169.82 c -5.593,-14.15 -7.761,-24.76 15.821,-32.37 12.863,-4.16 20.715,1.76 26.191,15.93 l 35.332,86.4 49.539,-21.8 -33.101,-83.29 c -18.196,-47.31 -46.321,-53.44 -94.661,-35.45 -53.964,20.22 -66.765,44.92 -50.3,87.81 l 30.933,85.81 51.887,-17.11 -31.641,-85.93"
         style="fill:#ffffff;fill-opacity:1;fill-rule:nonzero;stroke:none"
         id="path58" />
         
       <path
         d="m 645.438,910.047 c -4.215,-2.754 0.238,-6.098 2.46,-8.207 17.961,1.32 41.372,2.988 62.168,0.793 l 4.164,4.07 c -10.492,10.344 -24.289,20.012 -37.328,27.481 z m 18.285,-167.461 c 0.465,-2.231 -1.41,-5.453 1.609,-6.566 8.789,1.906 24.871,-4.747 29.734,5.773 -6.738,7.707 -22.617,6.883 -31.343,0.793 z m 173.203,84.637 c 1.402,8.23 14.414,9.636 23.203,10.695 25.105,1.785 46.199,-7.707 66.266,-18.227 2.082,10.727 5.57,19.309 8.378,29.063 6.622,16.293 19.629,32.875 36.504,39.789 4.282,1.461 5.981,-2.582 4.868,-8.266 -10.754,-56.394 28.005,-96.148 53.935,-139.273 -29.86,-19.953 -58.037,10.719 -86.225,18.219 -12.39,2.785 -27.07,3.574 -38.96,1.699 -17.114,26.543 -40.082,51.387 -67.969,66.301 z m -19.922,14.851 c -27.922,10.606 -56.606,23.203 -87.863,28.215 -66.621,11.34 -130.696,-3.34 -185.774,-29.883 -4.629,27.918 -18.222,52.293 -34.746,75.438 7.617,4.746 22.942,-1.582 32.285,-4.922 9.668,-3.543 16.645,-6.707 24.934,-9.961 1.672,16.586 -8.086,32.875 -14.942,48.078 6.18,3.547 12.129,0.789 17.43,-0.789 21.801,-8.352 41.367,-21.328 61.235,-33.227 l -0.059,0.235 18.223,44.535 -33.899,30.699 c -3.84,3.457 -4.133,3.344 -1.262,3.547 4.426,0.262 46.086,2.371 46.086,2.371 0,0 19.512,42.28 19.661,42.72 0.171,0.46 0.464,0 0.464,0 l 19.746,-41.9 c 0,0 45.997,-2.578 47.29,-2.636 1.257,-0.059 0,-1.114 0,-1.114 l -36.45,-34.57 17.348,-42.012 -0.063,-0.058 c 25.168,14.535 49.868,33.078 80.332,35.039 -1.582,-9.141 -13.679,-31.844 -13.945,-49.246 15.91,6.707 35.805,16.875 56.367,15.73 -9.839,-16.933 -31.289,-46.988 -32.398,-76.289 z m -72.191,-56.363 c -10.426,4.098 -24.989,9.961 -35.625,1.754 -6.036,12.953 10.839,10.195 16.613,14.004 8.586,0.234 18.601,0.531 22.351,-6.676 0.356,-1.645 0.586,-7.121 -3.339,-9.082 z m 1.117,43.531 c 1.519,-3.398 5.332,-9.258 2.222,-14.531 -16.289,4.98 -41.511,1.406 -50.507,-4.039 -14.122,-10.547 -11.922,-32.141 -8.375,-47.348 l 4.277,-3.25 c 6.914,1.582 7.117,10.371 13.269,12.391 10.164,-2.461 24.231,-6.09 33.899,0 8.555,-0.262 10.078,-12.598 9.195,-18.223 -6.18,-32.109 -19.629,-66.855 -52.265,-82.207 -13.59,-6.531 -36.356,-1.785 -43.915,2.637 -32.167,19.043 -50.07,56.894 -46.496,91.113 0.762,4.926 6.329,9.434 12.422,5.801 12.981,-8.789 27.129,6.945 38.996,-4.129 14.414,6.418 5.828,24.082 5.828,37.352 -11.628,14.882 -31.492,12.746 -48.894,11.601 -8.176,2.871 -0.203,12.832 2.434,17.465 18.75,26.422 54.722,27.008 86.191,23.086 14.559,-1.875 32.664,-11.664 41.719,-27.719 z M 615.586,801.469 c 12.977,3.078 27.512,-0.789 33.957,-10.809 v -3.312 c -9.438,0.851 -24.641,10.312 -33.227,-1.637 -5.476,-2.523 -5.972,3.629 -6.179,7.437 -0.149,4.895 1.758,7.532 5.449,8.321 z m -119.5,8.261 c -14.008,-13.828 -31.231,-30.644 -41.34,-48.074 -34.543,6.887 -62.258,-13.273 -91.262,-24.875 -9.898,-3.105 -25.664,-3.34 -34.773,4.223 27.336,45 66.008,86.543 56.277,145.836 -1.082,7.148 8.325,0.879 11.66,-0.762 21.332,-16.64 31.528,-39.551 34.016,-64.687 26.746,10.195 63.281,27.949 92.024,9.14 -8.848,-6.734 -17.993,-13.328 -26.602,-20.801 z M 1043.35,682.934 c -42.83,-16.875 -70.955,25.988 -112.034,25.636 -5.125,6.153 -6.445,13.563 -9.019,20.77 46.109,14.914 76.519,-51.621 121.843,-17.34 -3.49,56.012 -15.47,108.75 -41.31,155.797 -27.217,53.555 -77.193,106.465 -129.463,138.403 -98.316,69.72 -258.633,74.68 -363.222,15 C 393.313,961.695 322.883,840.961 313.738,716.043 c 0,0 -1.109,-4.133 3.282,-6.621 44.386,-23.793 72.484,28.297 115.316,22.351 11.07,-2.492 1.172,-11.808 -1.672,-18.195 -3.34,-8.32 -15.383,-3.574 -22.351,-6.68 -29.297,-12.597 -59.418,-37.175 -93.696,-23.964 0,0 0.238,-2.516 0.473,-6.18 0.699,-9.492 1.93,-26.164 1.93,-26.164 38.441,-12.156 63.339,27.89 99.496,23.207 -0.762,-8.086 -1.321,-16.645 -5.715,-22.387 -33.223,-1.64 -53.992,-32.867 -88.77,-30.699 l 6.68,-26.398 c 29.211,-4.043 49.48,27.773 79.602,24.785 l -0.852,-19.895 c -26.543,-2.519 -43.684,-27.39 -70.457,-29.004 3.57,-61.402 46.109,9.348 72.891,-2.519 1.113,-6.59 5.093,-13.008 2.515,-19.922 -21.504,0.351 -35.152,-18.516 -53.847,-24.84 3.222,-7.738 5.48,-18.781 14.125,-21.621 15.964,6.707 28.972,20.769 47.988,19.918 -2.231,7.18 -3.34,15.793 -3.34,23.207 24.082,-6.274 37.852,12.476 54.781,23.258 3.867,33.988 27.602,59.945 42.246,89.472 2.61,6.067 2.258,13.301 1.992,19.602 -0.789,36.004 -19.976,71.75 -5.859,108.371 5.395,14.234 14.914,33.75 30.41,37.879 -28.504,-34.016 -23.433,-85.957 -8.289,-124.309 1.731,-4.273 4.219,-15.058 3.867,-21.941 -1.23,-30.324 -29.531,-53.469 -40.398,-80.891 -13.418,-27.39 -1.059,-58.652 14.059,-81.179 -21.739,-16.875 -50.332,-44.036 -70.372,-39.055 -8.027,3.871 -8.378,14.941 -12.449,22.383 -16.875,3.285 -30.437,-8.203 -43.918,-16.524 l 15.824,-19.89 c 11.571,5.476 28.653,18.836 38.083,9.113 19.628,-23.207 -19.129,-11.664 -24.083,-25.785 5.508,-7.442 12.192,-12.949 19.106,-19.102 7.996,2.578 17.281,10.11 23.992,7.559 2.195,-0.879 8.289,-9.434 9.988,-15 l -14.91,-8.992 c 10.75,-11.075 24.348,-21.653 37.293,-26.633 7.707,26.015 28.071,46.996 38.117,71.281 4.129,12.481 4.922,21.883 5.008,29.883 27.864,-43.332 -30.672,-69.168 -30.672,-110.242 6.004,-5.602 13.45,-8.59 20.774,-11.571 -1.113,32.313 25.894,52.993 37.234,80.356 20.742,43.359 -27.043,70.461 -42.219,105.293 -14.414,31.582 5.747,61.117 25.664,84.668 13.887,14.828 17.524,29.59 16.235,44.328 -2.754,33.25 -28.535,64.656 -19.399,103.918 5.747,24.051 17.168,50.914 41.25,60.613 -17.461,-20.187 -26.48,-43.625 -28.179,-70.488 -2.578,-39.875 24.402,-61.731 25.984,-94.043 0.32,-6.504 0.32,-13.211 -2.726,-20.363 -13.473,-29.356 -44.293,-51.387 -43.946,-86.192 -3.57,-45.996 56.313,-63.34 49.66,-110.359 -0.5,-40.871 -47.429,-63.543 -37.265,-107.731 l 25.691,-8.289 c -14.527,49.723 37.094,77.348 37.324,121.852 2.551,37.586 -37.879,57.246 -48.074,89.586 -10.754,32.051 12.742,57.715 30.735,82.121 8.816,13.711 10.925,26.629 9.429,39.375 -3.601,31.289 -28.914,60.613 -27.715,94.832 -0.586,31.586 13.215,62.492 40.637,77.168 -8.293,-11.895 -17.754,-23.203 -22.351,-36.445 -17.2,-46.524 11.543,-86.25 25.691,-126.094 1.086,-3.281 1.785,-6.473 2.195,-9.461 5.395,-36.914 -32.398,-60.5 -39.461,-94.219 -9.843,-40.812 34.246,-59.617 43.914,-93.66 20.625,-55.492 -46.464,-87.922 -30.757,-143.434 3.804,-14.363 18.867,-12.691 29.058,-13.222 -24.961,45.883 15.18,83.703 27.363,123.492 13.54,42.594 -27.07,66.617 -43.945,99.547 -17.723,37.035 22.707,59.972 31.496,91.172 7.41,21.328 25.281,3.605 39.406,3.605 17.547,0 41.129,16.024 45.172,2.258 6.914,-28.305 39.493,-45.648 39.786,-76.289 -1.168,-47.524 -69.872,-72.395 -48.075,-124.399 17.903,-36.21 48.66,-77.636 28.211,-119.386 l 25.61,5.769 c 17.168,42.836 -15.586,77.114 -29.829,110.278 -13.765,39.523 20.864,69.082 41.489,99.492 20.828,34.777 -11.899,66.914 -29.824,95.332 -6.211,11.691 -7.446,22.914 -6.04,33.664 3.254,22.762 18.813,43.797 25.903,65.039 15.176,36.211 6.68,81.211 -21.567,108.633 l 0.825,0.789 c 14.121,-8.32 26.89,-22.938 33.218,-37.352 24.258,-48.664 -10.488,-91.73 -19.043,-137.109 -0.464,-2.254 -0.789,-7.238 -0.964,-8.996 0.964,-25.281 25.515,-43.77 38.171,-69.403 21.332,-41.457 -16.289,-70.808 -37.261,-101.98 -33.989,-58.332 47.254,-92.609 30.64,-150.934 l 24.875,8.368 c 6.414,31.293 -17.668,56.371 -32.312,82.035 -20.918,42.539 16.64,75.41 38.113,107.754 21.184,36.797 -14.062,74.414 -33.137,105.238 -6.035,9.019 -7.996,18.426 -7.554,27.918 1.14,18.105 12.039,35.652 18.394,51.707 14.297,38.793 4.336,85.754 -20.801,114.434 16.821,-6.883 30.469,-25.602 35.864,-41.368 16.402,-42.246 -5.246,-82.234 -13.242,-120.906 -0.122,-1.199 -0.356,-2.988 -0.356,-3.84 v 0 c -1.172,-35.508 34.984,-57.683 44.887,-90.906 9.722,-34.191 -15.617,-59.414 -33.93,-82.824 -46.875,-59.879 27.363,-89.063 26.574,-139.36 7.118,3.071 16.493,4.387 20.567,11.625 -3.489,27.95 -27.278,47.52 -37.266,72.95 -3.894,12.777 -3.308,27.129 4.949,36.535 l 1.703,-1.672 c -3.046,-40.664 32.372,-65.301 43.18,-100.371 7.649,3.578 23.735,14.648 35.625,25.664 -3.34,2.988 -9.668,6.973 -14.883,9.203 -2.871,6.09 5.215,11.891 9.028,17.43 l 23.316,-8.293 c 6.801,6.328 12.656,11.281 18.984,19.543 -8.257,5.8 -18.218,10.281 -28.21,11.867 -0.262,6.414 3.339,11.422 7.468,15.816 14.067,0.617 25.2,-6.062 36.504,-11.66 4.336,4.192 12.278,12.832 15.617,20.219 l -30.586,15.465 c -21.445,11.074 -14.914,-15.176 -24.875,-21.504 -27.859,1.086 -47.753,20.683 -68.789,38.176 1.411,9.316 11.575,21.945 15.825,34.656 12.07,40.723 -20.246,71.371 -38.204,103.711 -4.511,7.91 -6.125,15.793 -6.125,23.703 0.176,21.941 12.571,43.797 15.208,66.797 3.804,30.086 -7.649,57.918 -19.043,82 7.847,-4.801 14.468,-7.996 20.796,-19.071 15.469,-30.437 20.481,-69.609 5.715,-105.292 -4.426,-10.809 -4.597,-16.848 -4.133,-24.434 2.344,-38.176 45.176,-65.039 45.649,-105.793 16.582,-12.363 31.519,-33.164 53.848,-26.539 1.668,-7.942 -2.29,-14.535 -2.407,-23.969 19.867,1.055 33.164,-13.855 50.481,-19.156 4.133,7.234 11.394,14.414 10.898,22.5 -19.656,5.797 -33.777,25.078 -55.637,25.543 l 4.219,19.133 c 22.856,0.527 40.489,-19.012 61.996,-24.258 6.62,6.414 9.2,16.023 11.72,25.105 -26.431,4.16 -45.645,26.543 -72.134,30.703 0.239,8.352 -2.285,14.856 0.703,20.395 25.2,0 36.301,-17.316 65.451,-26.457 18.05,-4.832 19.98,18.191 21.21,25.75 -35.04,-1.348 -57.54,31.465 -91.524,32.582 l -4.101,20.68 c 36.796,5.976 62.665,-33.926 100.485,-23.145 1.29,11.106 1.76,17.52 1.47,26.926 0.09,1.496 -0.06,4.043 0,6.18 z m -394.69,37.324 0.883,-5.039 c 10.777,-7.176 14.18,-19.305 29.117,-18.25 13.215,-0.793 23.086,11.601 29.738,21.621 -17.96,2.461 -39.726,-1.379 -59.738,1.668"
         style="fill:#231f20;fill-opacity:1;fill-rule:nonzero;stroke:none"
         id="path60" />
     </g>
   </g>
</svg>
