<svg version="1.2" xmlns="http://www.w3.org/2000/svg" viewBox="0 0 123 222" width="85" height="153">
	<title>netflix-seeklogo</title>
	<defs>
		<radialGradient id="g1" cx="59.3" cy="109.7" r="8" gradientUnits="userSpaceOnUse">
			<stop offset="0" stop-color="#000000"/>
			<stop offset="1" stop-color="#000000" stop-opacity="0"/>
		</radialGradient>
	</defs>
	<style>
		.s0 { fill: #b1060f;stroke: #000000;stroke-width: .3 } 
		.s1 { fill: url(#g1) } 
		.s2 { fill: #e50914 } 
	</style>
	<g id="layer1">
		<g id="g4182">
			<g id="g5747">
				<path id="path4155" class="s0" d="m122.2 0.7l0.1 110.3c0 60.6 0 110.4-0.2 110.5-0.1 0.1-2.1-0.1-4.4-0.3-10.1-1.3-23.3-2.4-33.9-3-3.5-0.1-6.4-0.3-6.4-0.3-0.1-0.1-2.8-7.8-7.9-22.2l5.2-108.7 4 11.3 0.1-48.8 0.1-48.8z"/>
				<path id="path4157" class="s0" d="m0.5 0.5h43.6l0.3 0.8c0.2 0.5 3.8 10.6 8 22.6 1.3 3.6 0.7 1.9 1.8 5l-5.2 108.8c-0.5-1.5-0.7-2-1.2-3.5l-3.5-9.8-0.1 46.8c-0.1 44.3-0.1 46.8-0.6 46.8-1.6 0-15.9 0.9-20.7 1.3-3.1 0.3-9.3 0.9-13.9 1.4-4.5 0.5-8.3 0.9-8.3 0.8-0.1-0.1-0.2-49.8-0.2-110.6v-110.4z"/>
				<path id="path5715" class="s0" d="m122.2 0.7l0.1 110.3c0 60.6 0 110.4-0.2 110.5-0.1 0.1-2.1-0.1-4.4-0.3-10.1-1.3-23.3-2.4-33.9-3-3.5-0.1-6.4-0.3-6.4-0.3-0.1-0.1-2.8-7.8-7.9-22.2l5.2-108.7 4 11.3 0.1-48.8 0.1-48.8z"/>
				<path id="path5717" class="s0" d="m0.5 0.5h43.6l0.3 0.8c0.2 0.5 3.8 10.6 8 22.6 1.3 3.6 0.7 1.9 1.8 5l-5.2 108.8c-0.5-1.5-0.7-2-1.2-3.5l-3.5-9.8-0.1 46.8c-0.1 44.3-0.1 46.8-0.6 46.8-1.6 0-15.9 0.9-20.7 1.3-3.1 0.3-9.3 0.9-13.9 1.4-4.5 0.5-8.3 0.9-8.3 0.8-0.1-0.1-0.2-49.8-0.2-110.6v-110.4z"/>
				<path id="path5719" class="s1" d="m0.5 0.5h43.6l0.3 0.8c0.1 0.5 3.7 10.6 7.9 22.6 15.8 44.6 18.5 52 22.4 63.1l4 11.3 0.1-48.8v-11.8l43.4 124.9c0 34.4 0 58.8-0.1 58.9-0.2 0.1-2.1-0.1-4.5-0.3-10-1.3-23.2-2.4-33.8-3-3.5-0.1-6.4-0.3-6.5-0.3 0-0.1-10.4-29.3-29.5-83.7l-3.5-9.8-0.1 46.8c0 3 0 4.5 0 7.1l-43.7-115.8v-62z"/>
				<path id="path5721" class="s2" d="m22.3 0.5h21.8l0.3 0.8c0.1 0.5 3.7 10.6 7.9 22.6 15.8 44.6 18.5 52 22.4 63.1l4 11.3 43.4 123.2c-0.2 0.1-2.2-0.1-4.5-0.3-10-1.3-23.2-2.4-33.8-3-3.5-0.1-6.4-0.3-6.5-0.3 0-0.1-10.4-29.3-29.6-83.7l-3.4-9.7-43.8-124z"/>
			</g>
		</g>
	</g>
</svg>